# xmcd CD database file
#
# Track frame offsets:
#	150
#	24395
#	50910
#	83086
#	168528
#	189656
#
# Disc length: 3057 seconds
#
# Revision: 0
# Processed by: cddbd v1.5.2PL0 Copyright (c) Steve Scherf et al.
# Submitted via: CDex 1.70beta2
#
DISCID=4a0bef06
DTITLE=Walter Thompson - PEXO - A Soundpainting Symphony
DYEAR=2001
DGENRE=Jazz
TTITLE0=Entrance
TTITLE1=Prepare
TTITLE2=Get Ready
TTITLE3=Bob Barker
TTITLE4=The Crowd
TTITLE5=Two Talk Show Hosts
EXTD=YEAR: 2001
EXTT0=
EXTT1=
EXTT2=
EXTT3=
EXTT4=
EXTT5=
PLAYORDER=
